<svg width="300" height="300" viewBox="0 0 300 300" fill="none" xmlns="http://www.w3.org/2000/svg">
<path d="M59.3955 58.1211C59.4621 58.8963 59.4621 59.6759 59.3955 60.4511C58.8631 63.7036 59.3559 67.0412 60.8056 70.0011C62.4963 73.8386 64.9768 77.2767 68.0855 80.0911C74.3149 85.8648 81.9315 89.9297 90.1956 91.8911C94.7756 93.0011 99.4455 93.7411 104.036 94.8111C108.832 95.7828 113.567 97.0384 118.215 98.5711C121.347 99.7927 124.261 101.511 126.845 103.661C132.777 108.492 137.689 114.454 141.296 121.201C143.826 125.811 146.636 130.281 149.566 134.651C155.566 143.521 164.076 148.081 174.566 149.131C180.436 149.733 186.347 149.84 192.235 149.451C197.835 149.061 203.506 148.611 209.066 149.821C221.806 152.591 231.786 159.141 237.776 171.071C239.036 173.581 240.386 176.071 241.686 178.551C244.419 183.698 248.112 188.273 252.566 192.031C255.226 194.331 258.465 195.541 261.705 196.751C263.915 197.571 266.146 198.391 268.266 199.401C272.406 201.401 274.855 204.901 276.845 209.121L239.105 242.121L238.266 240.221C237.206 237.831 236.266 235.341 235.046 233.051C233.234 229.865 230.386 227.394 226.975 226.051C225.975 225.631 224.975 225.151 223.975 224.761C217.575 222.298 212.063 217.967 208.156 212.331C204.526 207.241 200.916 202.081 196.806 197.331C189.336 188.751 180.215 182.681 168.605 181.281C163.385 180.651 158.136 180.211 152.886 179.881C147.811 179.603 142.769 178.89 137.816 177.751C134.632 176.973 131.619 175.617 128.926 173.751C123.556 170.151 119.446 165.391 115.786 160.111C111.786 154.301 107.646 148.521 103.286 142.951C97.1317 134.835 88.316 129.145 78.3855 126.881C69.2855 124.741 60.2355 122.421 50.9855 121.021C45.1669 119.984 39.5565 118.005 34.3755 115.161C31.3755 113.611 29.3055 111.111 27.2655 108.541C22.5155 102.541 21.3555 95.7911 22.7855 88.4911C23.3055 85.8411 24.3555 83.2911 24.9555 80.6511C25.1392 79.9525 25.4722 79.302 25.9314 78.7445C26.3906 78.1869 26.9651 77.7354 27.6155 77.4211C35.4222 72.6278 43.2322 67.8244 51.0455 63.0111C53.1355 61.7211 55.2056 60.4211 57.3056 59.1411C57.9356 58.8211 58.5855 58.5311 59.3955 58.1211ZM39.0955 109.961C39.9282 109.591 40.7221 109.138 41.4655 108.611C46.7988 104.391 52.0888 100.134 57.3355 95.8411C57.8967 95.3869 58.3827 94.8469 58.7755 94.2411C59.1393 93.7142 59.3172 93.0811 59.281 92.4418C59.2448 91.8025 58.9966 91.1935 58.5756 90.7111C58.1892 90.2588 57.6705 89.9392 57.0928 89.7974C56.515 89.6557 55.9073 89.699 55.3555 89.9211C54.6727 90.162 54.0392 90.5245 53.4855 90.9911C48.1055 95.2844 42.7455 99.5977 37.4055 103.931C36.7029 104.491 36.1498 105.216 35.7955 106.041C35.0155 107.981 36.5255 110.001 39.0955 109.961V109.961ZM184.906 179.861C184.879 180.292 184.954 180.724 185.127 181.12C185.299 181.516 185.563 181.866 185.897 182.14C186.231 182.415 186.625 182.606 187.047 182.698C187.47 182.79 187.908 182.781 188.326 182.671C189.356 182.352 190.304 181.813 191.105 181.091C195.765 177.091 200.386 173.031 204.996 168.961C205.597 168.417 206.119 167.791 206.546 167.101C206.855 166.647 207.012 166.106 206.996 165.556C206.98 165.007 206.791 164.477 206.455 164.041C206.172 163.568 205.743 163.199 205.234 162.989C204.724 162.778 204.16 162.737 203.626 162.871C202.759 163.09 201.948 163.489 201.246 164.041C199.816 165.141 198.496 166.391 197.136 167.581L186.705 176.721C186.189 177.076 185.759 177.542 185.447 178.086C185.135 178.629 184.95 179.236 184.906 179.861ZM247.446 202.621C246.703 202.959 245.996 203.371 245.335 203.851C240.575 207.771 235.842 211.721 231.136 215.701C230.564 216.149 230.047 216.663 229.595 217.231C229.164 217.765 228.929 218.43 228.929 219.116C228.929 219.802 229.164 220.467 229.595 221.001C230.03 221.533 230.638 221.895 231.313 222.023C231.988 222.151 232.686 222.037 233.286 221.701C233.695 221.507 234.078 221.261 234.426 220.971C239.046 217.171 243.686 213.381 248.266 209.531C249.176 208.78 249.935 207.864 250.506 206.831C251.586 204.781 250.196 202.611 247.446 202.621ZM128.686 165.621C129.501 165.261 130.269 164.804 130.975 164.261C135.515 160.111 139.975 155.901 144.465 151.671C145.12 151.055 145.644 150.314 146.006 149.491C146.246 148.945 146.298 148.335 146.155 147.757C146.013 147.178 145.682 146.662 145.215 146.291C144.83 145.904 144.332 145.65 143.792 145.566C143.253 145.481 142.701 145.571 142.215 145.821C141.403 146.215 140.649 146.72 139.975 147.321C135.595 151.368 131.239 155.444 126.906 159.551C126.239 160.159 125.71 160.902 125.355 161.731C124.555 163.721 126.016 165.721 128.686 165.611V165.621ZM212.826 204.421C213.51 204.147 214.161 203.795 214.766 203.371C219.376 199.571 223.936 195.721 228.496 191.861C229.262 191.229 229.953 190.511 230.556 189.721C230.927 189.252 231.134 188.674 231.145 188.076C231.155 187.478 230.969 186.893 230.616 186.411C230.243 185.893 229.716 185.508 229.11 185.31C228.504 185.112 227.851 185.113 227.246 185.311C226.645 185.503 226.085 185.804 225.595 186.201C220.845 190.121 216.106 194.051 211.436 198.051C210.62 198.759 209.994 199.66 209.616 200.671C208.946 202.561 210.366 204.361 212.826 204.411V204.421ZM60.4855 117.791C61.3078 117.457 62.0896 117.031 62.8156 116.521C67.4756 112.761 72.0856 108.941 76.6856 105.111C77.2364 104.641 77.7148 104.091 78.1055 103.481C78.4459 102.99 78.6233 102.404 78.6126 101.806C78.6018 101.209 78.4035 100.63 78.0455 100.151C77.702 99.663 77.208 99.3009 76.6391 99.1203C76.0701 98.9397 75.4577 98.9505 74.8955 99.1511C74.1175 99.3851 73.396 99.7766 72.7755 100.301C68.1955 104.021 63.6388 107.768 59.1055 111.541C58.4006 112.094 57.8039 112.772 57.3455 113.541C56.2755 115.551 57.6355 117.721 60.4855 117.781V117.791ZM142.676 170.721C142.596 173.331 144.546 174.801 146.556 174.041C147.383 173.682 148.134 173.165 148.766 172.521C151.536 169.921 154.276 167.271 157.016 164.621C158.576 163.111 160.186 161.621 161.626 160.011C162.164 159.443 162.465 158.689 162.465 157.906C162.465 157.123 162.164 156.369 161.626 155.801C160.546 154.621 159.036 154.541 157.426 155.581C157.121 155.776 156.836 156 156.576 156.251C152.356 160.371 148.125 164.461 143.955 168.631C143.435 169.266 143.005 169.969 142.676 170.721V170.721ZM116.326 114.441C115.519 114.828 114.751 115.294 114.036 115.831C109.909 119.351 105.816 122.908 101.756 126.501C101.075 127.093 100.518 127.814 100.115 128.621C99.8292 129.146 99.7316 129.753 99.839 130.34C99.9464 130.928 100.252 131.462 100.705 131.851C101.101 132.298 101.635 132.6 102.221 132.711C102.808 132.821 103.414 132.733 103.946 132.461C104.666 132.108 105.338 131.664 105.946 131.141C109.986 127.641 113.986 124.121 117.946 120.581C118.629 119.993 119.189 119.276 119.595 118.471C120.605 116.431 119.116 114.331 116.326 114.441V114.441ZM111.686 141.651C112.448 141.333 113.173 140.931 113.845 140.451C117.985 136.951 122.096 133.404 126.176 129.811C128.176 128.011 128.515 126.341 127.335 124.881C126.155 123.421 124.185 123.371 122.095 125.161C118.095 128.561 114.129 131.998 110.196 135.471C109.441 136.112 108.831 136.907 108.406 137.801C107.576 139.721 109.076 141.721 111.686 141.651ZM220.455 182.001C220.525 179.311 218.625 177.891 216.605 178.651C215.772 179.003 215.002 179.49 214.326 180.091C210.916 182.941 207.516 185.811 204.166 188.731C203.336 189.423 202.626 190.247 202.066 191.171C201.755 191.686 201.632 192.292 201.715 192.888C201.799 193.483 202.085 194.032 202.526 194.441C202.891 194.855 203.375 195.147 203.911 195.277C204.447 195.408 205.011 195.371 205.526 195.171C206.049 195.023 206.541 194.779 206.975 194.451C211.065 191.001 215.166 187.561 219.186 184.031C219.72 183.43 220.149 182.744 220.455 182.001V182.001ZM159.016 177.191C159.866 176.752 160.664 176.218 161.396 175.601C164.136 172.951 166.786 170.221 169.396 167.471C169.947 166.875 170.409 166.201 170.766 165.471C171.02 164.988 171.113 164.435 171.03 163.895C170.948 163.355 170.694 162.856 170.306 162.471C169.943 161.993 169.429 161.653 168.847 161.507C168.265 161.362 167.65 161.419 167.105 161.671C166.281 162.047 165.53 162.565 164.886 163.201C162.126 165.951 159.405 168.751 156.715 171.571C156.203 172.08 155.802 172.69 155.536 173.361C154.816 175.441 156.176 177.261 159.016 177.191ZM76.5955 121.021C77.3614 120.727 78.0871 120.337 78.7555 119.861C81.7955 117.301 84.7955 114.688 87.7555 112.021C89.7555 110.191 90.1055 108.231 88.7555 106.861C87.4055 105.491 85.7555 105.611 83.7555 107.351C80.7555 109.871 77.8855 112.431 74.9855 115.021C74.3611 115.543 73.8447 116.181 73.4655 116.901C72.4355 118.961 73.8255 121.061 76.5855 121.021H76.5955ZM231.326 172.931C231.363 172.475 231.283 172.018 231.094 171.601C230.905 171.185 230.613 170.824 230.246 170.552C229.879 170.279 229.448 170.105 228.995 170.046C228.542 169.986 228.081 170.043 227.656 170.211C226.175 170.878 224.888 171.91 223.916 173.211C223.638 173.602 223.465 174.058 223.415 174.534C223.365 175.011 223.438 175.493 223.628 175.933C223.818 176.373 224.118 176.757 224.499 177.047C224.881 177.338 225.331 177.525 225.806 177.591C228.016 177.911 231.276 175.221 231.316 172.931H231.326ZM97.6455 100.591C97.6458 100.187 97.5645 99.7867 97.4063 99.4146C97.2481 99.0426 97.0163 98.7064 96.7249 98.4262C96.4335 98.146 96.0884 97.9276 95.7105 97.7841C95.3325 97.6406 94.9295 97.5749 94.5255 97.5911C93.4908 97.6817 92.5169 98.1191 91.7619 98.8324C91.0068 99.5457 90.5148 100.493 90.3655 101.521C90.3437 101.928 90.4053 102.336 90.5463 102.718C90.6873 103.101 90.9048 103.451 91.1856 103.747C91.4663 104.042 91.8044 104.278 92.1792 104.438C92.554 104.599 92.9577 104.682 93.3655 104.681C94.4498 104.626 95.478 104.182 96.2621 103.431C97.0462 102.68 97.5336 101.672 97.6355 100.591H97.6455ZM175.016 161.081C176.065 161.02 177.053 160.563 177.779 159.802C178.505 159.041 178.915 158.033 178.926 156.981C178.862 156.207 178.5 155.487 177.916 154.974C177.332 154.461 176.572 154.195 175.796 154.231C174.746 154.292 173.759 154.747 173.032 155.506C172.305 156.264 171.891 157.27 171.876 158.321C171.937 159.099 172.299 159.823 172.886 160.338C173.472 160.853 174.236 161.12 175.016 161.081ZM63.0155 91.0011C63.9286 91.006 64.8095 90.6638 65.4797 90.0436C66.15 89.4235 66.5596 88.5718 66.6255 87.6611C66.6349 87.2539 66.5626 86.8489 66.4129 86.4701C66.2631 86.0912 66.039 85.7462 65.7538 85.4554C65.4686 85.1646 65.1281 84.9339 64.7522 84.7768C64.3764 84.6198 63.9729 84.5397 63.5656 84.5411C63.0907 84.5449 62.6214 84.6434 62.1851 84.8308C61.7488 85.0182 61.3543 85.2908 61.0247 85.6325C60.695 85.9743 60.4368 86.3784 60.2653 86.8211C60.0937 87.2639 60.0122 87.7364 60.0255 88.2111C60.0178 88.5907 60.089 88.9679 60.2348 89.3186C60.3805 89.6692 60.5975 89.9858 60.8721 90.2481C61.1466 90.5105 61.4728 90.7129 61.8297 90.8425C62.1867 90.9721 62.5666 91.0261 62.9456 91.0011H63.0155ZM84.6956 96.7511C84.697 95.9857 84.4056 95.2487 83.8814 94.691C83.3571 94.1333 82.6395 93.797 81.8755 93.7511C81.4471 93.7349 81.0198 93.8055 80.6194 93.9587C80.219 94.1119 79.8536 94.3445 79.5453 94.6424C79.237 94.9404 78.9922 95.2977 78.8256 95.6927C78.6589 96.0877 78.5739 96.5124 78.5756 96.9411C78.5587 97.7168 78.843 98.4689 79.3688 99.0395C79.8946 99.6101 80.621 99.9547 81.3955 100.001C81.8255 100.007 82.2521 99.9252 82.6498 99.7617C83.0475 99.5982 83.408 99.356 83.7097 99.0496C84.0114 98.7433 84.248 98.3791 84.4054 97.9789C84.5628 97.5787 84.6377 97.1509 84.6255 96.7211L84.6956 96.7511ZM152.286 143.451C152.282 143.046 152.194 142.647 152.028 142.278C151.861 141.908 151.62 141.578 151.319 141.307C151.018 141.036 150.664 140.831 150.28 140.704C149.895 140.578 149.488 140.532 149.085 140.571C148.269 140.605 147.499 140.956 146.938 141.551C146.378 142.145 146.072 142.934 146.085 143.751C146.077 144.134 146.147 144.515 146.292 144.87C146.436 145.225 146.652 145.546 146.926 145.814C147.199 146.082 147.525 146.291 147.883 146.428C148.241 146.565 148.623 146.628 149.006 146.611C149.424 146.616 149.84 146.539 150.229 146.382C150.617 146.226 150.971 145.994 151.269 145.7C151.568 145.407 151.805 145.056 151.968 144.67C152.13 144.284 152.214 143.87 152.215 143.451H152.286ZM132.286 124.241C133.104 124.215 133.879 123.866 134.442 123.27C135.004 122.674 135.307 121.88 135.286 121.061C135.27 120.29 134.959 119.554 134.415 119.006C133.871 118.458 133.137 118.142 132.365 118.121C131.94 118.107 131.516 118.186 131.124 118.353C130.732 118.519 130.381 118.769 130.095 119.085C129.81 119.401 129.597 119.776 129.47 120.183C129.344 120.589 129.309 121.019 129.365 121.441C129.359 121.812 129.427 122.18 129.566 122.523C129.705 122.866 129.912 123.178 130.174 123.44C130.436 123.701 130.749 123.907 131.093 124.045C131.437 124.182 131.805 124.249 132.176 124.241H132.286ZM212.235 161.911C213.06 161.926 213.859 161.622 214.466 161.064C215.073 160.505 215.442 159.734 215.496 158.911C215.512 158.507 215.446 158.104 215.303 157.726C215.159 157.348 214.941 157.003 214.66 156.712C214.38 156.42 214.044 156.189 213.672 156.03C213.3 155.872 212.9 155.791 212.496 155.791C211.677 155.824 210.901 156.166 210.326 156.749C209.75 157.332 209.418 158.112 209.396 158.931C209.367 159.309 209.416 159.688 209.54 160.046C209.663 160.404 209.859 160.733 210.115 161.012C210.371 161.292 210.681 161.516 211.027 161.67C211.373 161.825 211.747 161.907 212.126 161.911H212.235ZM235.936 186.211C236.501 186.214 237.054 186.052 237.528 185.742C238.001 185.433 238.373 184.992 238.597 184.473C238.821 183.954 238.888 183.381 238.788 182.824C238.689 182.268 238.428 181.753 238.038 181.344C237.647 180.935 237.146 180.649 236.595 180.524C236.044 180.398 235.468 180.437 234.939 180.636C234.41 180.835 233.951 181.185 233.62 181.643C233.288 182.101 233.099 182.646 233.076 183.211C233.073 183.965 233.354 184.693 233.864 185.249C234.374 185.805 235.074 186.148 235.826 186.211H235.936ZM122.955 114.421C123.34 114.437 123.724 114.376 124.085 114.241C124.446 114.106 124.776 113.9 125.056 113.635C125.335 113.37 125.559 113.052 125.714 112.699C125.868 112.346 125.95 111.966 125.955 111.581C125.959 111.219 125.892 110.859 125.757 110.523C125.622 110.186 125.422 109.88 125.168 109.621C124.915 109.362 124.613 109.155 124.279 109.013C123.946 108.87 123.588 108.795 123.225 108.791C122.46 108.79 121.723 109.081 121.165 109.605C120.608 110.129 120.271 110.847 120.225 111.611C120.247 112.336 120.539 113.027 121.044 113.547C121.55 114.067 122.231 114.379 122.955 114.421V114.421ZM253.796 203.831C254.475 203.867 255.142 203.636 255.653 203.188C256.165 202.74 256.482 202.109 256.536 201.431C256.496 200.757 256.215 200.121 255.742 199.639C255.269 199.157 254.638 198.863 253.965 198.811C253.629 198.783 253.292 198.826 252.973 198.935C252.654 199.045 252.361 199.219 252.113 199.448C251.865 199.676 251.667 199.953 251.531 200.262C251.396 200.571 251.326 200.904 251.326 201.241C251.3 201.577 251.346 201.915 251.459 202.233C251.573 202.551 251.752 202.841 251.985 203.085C252.217 203.329 252.499 203.522 252.811 203.65C253.123 203.779 253.458 203.84 253.796 203.831V203.831Z" fill="white"/>
<path d="M229.505 236.1C231.192 238.324 232.268 240.951 232.625 243.72C232.723 244.159 232.704 244.616 232.569 245.045C232.435 245.475 232.189 245.861 231.858 246.165C231.526 246.469 231.12 246.681 230.681 246.778C230.241 246.875 229.784 246.855 229.355 246.72C227.355 246.31 224.565 243.44 224.285 241.44C224.261 241.181 224.292 240.92 224.374 240.674C224.457 240.428 224.59 240.202 224.765 240.01C226.235 238.72 227.785 237.5 229.505 236.1Z" fill="#979FBB"/>
<path d="M39.0959 109.96C36.5259 109.96 35.0259 107.96 35.7959 106.04C36.1502 105.215 36.7033 104.49 37.4059 103.93C42.7393 99.5836 48.0992 95.2703 53.4859 90.9903C54.0395 90.5237 54.6731 90.1612 55.3559 89.9203C55.9077 89.6982 56.5154 89.6549 57.0932 89.7966C57.6709 89.9384 58.1896 90.258 58.576 90.7103C58.997 91.1927 59.2452 91.8017 59.2814 92.441C59.3176 93.0803 59.1397 93.7134 58.7759 94.2403C58.3831 94.8461 57.8971 95.386 57.3358 95.8403C52.0692 100.12 46.7792 104.377 41.4659 108.61C40.7225 109.138 39.9286 109.59 39.0959 109.96V109.96Z" fill="#3558A2"/>
<path d="M184.906 179.861C184.943 179.227 185.125 178.61 185.437 178.057C185.749 177.504 186.183 177.03 186.706 176.671L197.136 167.58C198.496 166.39 199.816 165.14 201.246 164.04C201.948 163.488 202.759 163.089 203.626 162.87C204.16 162.736 204.724 162.777 205.234 162.988C205.744 163.199 206.172 163.568 206.456 164.04C206.791 164.476 206.98 165.006 206.996 165.556C207.013 166.105 206.855 166.646 206.546 167.1C206.119 167.79 205.597 168.416 204.996 168.96C200.386 173.03 195.766 177.09 191.106 181.09C190.305 181.813 189.356 182.352 188.326 182.671C187.908 182.781 187.47 182.79 187.048 182.698C186.625 182.605 186.231 182.414 185.897 182.14C185.563 181.866 185.299 181.516 185.127 181.12C184.955 180.723 184.879 180.292 184.906 179.861V179.861Z" fill="#3558A2"/>
<path d="M247.445 202.621C250.195 202.621 251.585 204.781 250.525 206.831C249.955 207.864 249.195 208.78 248.285 209.531C243.705 213.381 239.065 217.171 234.445 220.971C234.098 221.261 233.715 221.506 233.305 221.701C232.706 222.037 232.008 222.151 231.333 222.023C230.658 221.895 230.05 221.533 229.615 221.001C229.184 220.467 228.949 219.802 228.949 219.116C228.949 218.43 229.184 217.765 229.615 217.231C230.067 216.663 230.584 216.149 231.155 215.701C235.875 211.701 240.609 207.751 245.355 203.851C246.009 203.372 246.709 202.96 247.445 202.621Z" fill="#3558A2"/>
<path d="M128.686 165.61C126.046 165.67 124.556 163.67 125.336 161.72C125.691 160.891 126.22 160.147 126.886 159.54C131.206 155.427 135.563 151.35 139.956 147.31C140.63 146.709 141.384 146.204 142.196 145.81C142.681 145.559 143.233 145.47 143.773 145.554C144.312 145.639 144.811 145.893 145.196 146.28C145.663 146.651 145.993 147.166 146.136 147.745C146.279 148.324 146.226 148.934 145.986 149.48C145.624 150.302 145.1 151.044 144.446 151.66C139.976 155.89 135.446 160.1 130.956 164.25C130.256 164.792 129.494 165.248 128.686 165.61V165.61Z" fill="#3558A2"/>
<path d="M212.825 204.411C210.365 204.361 208.945 202.561 209.615 200.661C209.993 199.65 210.619 198.749 211.435 198.041C216.105 194.041 220.845 190.111 225.595 186.191C226.085 185.795 226.644 185.493 227.245 185.301C227.851 185.103 228.504 185.103 229.11 185.3C229.716 185.498 230.243 185.884 230.615 186.401C230.969 186.884 231.155 187.469 231.144 188.067C231.133 188.665 230.926 189.242 230.555 189.711C229.952 190.501 229.261 191.219 228.495 191.851C223.935 195.711 219.375 199.561 214.765 203.361C214.161 203.785 213.51 204.137 212.825 204.411V204.411Z" fill="#3558A2"/>
<path d="M60.4846 117.781C57.6346 117.781 56.2746 115.551 57.3446 113.551C57.803 112.781 58.3997 112.103 59.1046 111.551C63.6312 107.771 68.188 104.024 72.7746 100.311C73.395 99.7862 74.1166 99.3948 74.8946 99.1607C75.4568 98.9601 76.0692 98.9493 76.6381 99.1299C77.2071 99.3105 77.7011 99.6726 78.0446 100.161C78.4025 100.639 78.6009 101.218 78.6117 101.816C78.6224 102.414 78.445 102.999 78.1046 103.491C77.7139 104.101 77.2355 104.65 76.6847 105.121C72.0847 108.951 67.4747 112.771 62.8147 116.531C62.0877 117.034 61.306 117.453 60.4846 117.781Z" fill="#3558A2"/>
<path d="M142.674 170.72C143.01 169.967 143.447 169.264 143.974 168.63C148.144 164.46 152.374 160.37 156.594 156.25C156.855 155.999 157.139 155.775 157.444 155.58C159.054 154.58 160.564 154.58 161.644 155.8C162.183 156.368 162.483 157.122 162.483 157.905C162.483 158.688 162.183 159.442 161.644 160.01C160.204 161.64 158.644 163.11 157.034 164.62C154.294 167.27 151.554 169.92 148.784 172.52C148.152 173.164 147.402 173.68 146.574 174.04C144.544 174.8 142.594 173.33 142.674 170.72Z" fill="#3558A2"/>
<path d="M116.325 114.44C119.115 114.33 120.605 116.44 119.655 118.44C119.248 119.244 118.688 119.961 118.005 120.55C114.005 124.103 110.005 127.623 106.005 131.11C105.397 131.633 104.725 132.076 104.005 132.43C103.473 132.702 102.867 132.79 102.28 132.679C101.694 132.569 101.16 132.266 100.765 131.82C100.311 131.43 100.005 130.897 99.8979 130.309C99.7906 129.721 99.8882 129.114 100.175 128.59C100.577 127.782 101.134 127.062 101.815 126.47C105.875 122.883 109.968 119.326 114.094 115.8C114.793 115.276 115.54 114.821 116.325 114.44V114.44Z" fill="#3558A2"/>
<path d="M111.685 141.651C109.075 141.711 107.575 139.721 108.405 137.801C108.83 136.906 109.44 136.112 110.195 135.471C114.122 131.991 118.088 128.554 122.095 125.161C124.185 123.371 126.095 123.321 127.335 124.881C128.575 126.441 128.205 128.011 126.175 129.811C122.102 133.411 117.992 136.958 113.845 140.451C113.172 140.931 112.448 141.333 111.685 141.651V141.651Z" fill="#3558A2"/>
<path d="M220.455 182C220.143 182.733 219.71 183.409 219.175 184C215.175 187.53 211.055 191 206.965 194.42C206.531 194.748 206.039 194.992 205.515 195.14C205.001 195.34 204.437 195.377 203.901 195.246C203.364 195.116 202.881 194.824 202.515 194.41C202.075 194.001 201.789 193.452 201.705 192.857C201.621 192.261 201.745 191.655 202.055 191.14C202.616 190.216 203.325 189.392 204.155 188.7C207.505 185.78 210.905 182.91 214.315 180.06C214.992 179.459 215.762 178.972 216.595 178.62C218.625 177.89 220.525 179.31 220.455 182Z" fill="#3558A2"/>
<path d="M159.016 177.191C156.186 177.261 154.826 175.441 155.566 173.331C155.833 172.66 156.234 172.05 156.746 171.541C159.436 168.721 162.156 165.921 164.916 163.171C165.561 162.535 166.312 162.017 167.136 161.641C167.681 161.389 168.295 161.331 168.877 161.477C169.459 161.622 169.974 161.963 170.336 162.441C170.724 162.826 170.978 163.325 171.061 163.865C171.144 164.405 171.051 164.958 170.796 165.441C170.439 166.171 169.978 166.845 169.426 167.441C166.786 170.191 164.136 172.921 161.426 175.571C160.687 176.201 159.879 176.744 159.016 177.191V177.191Z" fill="#3558A2"/>
<path d="M76.584 121.02C73.824 121.02 72.4341 118.96 73.4241 116.9C73.8033 116.18 74.3197 115.542 74.9441 115.02C77.8441 112.43 80.754 109.87 83.714 107.35C85.714 105.61 87.444 105.49 88.714 106.86C89.984 108.23 89.714 110.19 87.714 112.02C84.7673 114.687 81.7673 117.3 78.714 119.86C78.055 120.334 77.3395 120.724 76.584 121.02Z" fill="#3558A2"/>
<path d="M231.315 172.93C231.315 175.22 228.045 177.93 225.795 177.55C225.32 177.484 224.87 177.297 224.489 177.007C224.107 176.716 223.807 176.332 223.617 175.892C223.427 175.452 223.354 174.97 223.404 174.494C223.455 174.017 223.627 173.561 223.905 173.17C224.877 171.869 226.164 170.837 227.645 170.17C228.073 170 228.538 169.943 228.995 170.004C229.452 170.066 229.886 170.243 230.254 170.521C230.623 170.798 230.914 171.165 231.099 171.587C231.285 172.009 231.359 172.471 231.315 172.93V172.93Z" fill="#3558A2"/>
<path d="M97.6342 100.589C97.5272 101.67 97.0348 102.676 96.2471 103.423C95.4593 104.17 94.4288 104.609 93.3441 104.659C92.9363 104.66 92.5328 104.577 92.158 104.417C91.7831 104.256 91.445 104.021 91.1642 103.725C90.8834 103.429 90.6659 103.079 90.5249 102.696C90.3839 102.314 90.3224 101.906 90.3441 101.499C90.4934 100.471 90.9854 99.5239 91.7405 98.8106C92.4955 98.0972 93.4694 97.6598 94.5041 97.5692C94.9106 97.5516 95.3164 97.6168 95.6969 97.7609C96.0774 97.905 96.4245 98.125 96.7173 98.4075C97.0101 98.69 97.2423 99.0291 97.3999 99.4041C97.5575 99.7792 97.6372 100.182 97.6342 100.589V100.589Z" fill="#3558A2"/>
<path d="M175.015 161.08C174.235 161.119 173.471 160.852 172.885 160.337C172.299 159.822 171.936 159.098 171.875 158.32C171.891 157.269 172.304 156.263 173.031 155.504C173.758 154.746 174.746 154.29 175.795 154.23C176.571 154.194 177.331 154.46 177.915 154.973C178.499 155.486 178.861 156.205 178.925 156.98C178.914 158.032 178.504 159.04 177.778 159.801C177.053 160.562 176.065 161.019 175.015 161.08V161.08Z" fill="#3558A2"/>
<path d="M62.9448 90.999C62.5595 91.0359 62.1707 90.9906 61.8041 90.8663C61.4376 90.742 61.1015 90.5415 60.8181 90.2779C60.5346 90.0143 60.3103 89.6936 60.1597 89.3371C60.0092 88.9805 59.9359 88.596 59.9448 88.209C59.9314 87.7344 60.013 87.2619 60.1845 86.8191C60.3561 86.3763 60.6141 85.9723 60.9438 85.6305C61.2734 85.2887 61.668 85.0162 62.1043 84.8288C62.5406 84.6414 63.0099 84.5429 63.4847 84.5391C63.892 84.5376 64.2955 84.6178 64.6713 84.7748C65.0472 84.9319 65.3878 85.1626 65.673 85.4534C65.9583 85.7442 66.1824 86.0892 66.3321 86.468C66.4818 86.8468 66.5541 87.2518 66.5447 87.6591C66.4789 88.5681 66.0708 89.4183 65.4026 90.0382C64.7345 90.658 63.8562 91.0014 62.9448 90.999V90.999Z" fill="#3558A2"/>
<path d="M84.6246 96.72C84.6276 97.15 84.5436 97.5762 84.3777 97.9729C84.2117 98.3696 83.9673 98.7287 83.659 99.0285C83.3508 99.3284 82.985 99.5628 82.5839 99.7177C82.1827 99.8726 81.7545 99.9448 81.3247 99.93C80.5502 99.8836 79.8237 99.539 79.2978 98.9684C78.772 98.3979 78.4877 97.6457 78.5046 96.87C78.503 96.4413 78.5881 96.0166 78.7547 95.6216C78.9214 95.2266 79.1662 94.8693 79.4745 94.5714C79.7827 94.2734 80.148 94.0408 80.5484 93.8876C80.9489 93.7344 81.3762 93.6638 81.8047 93.68C82.5757 93.7263 83.2992 94.0681 83.8245 94.6344C84.3497 95.2006 84.6363 95.9477 84.6246 96.72Z" fill="#3558A2"/>
<path d="M152.215 143.451C152.214 143.877 152.127 144.298 151.96 144.689C151.793 145.081 151.548 145.434 151.241 145.729C150.934 146.024 150.571 146.254 150.173 146.406C149.775 146.557 149.351 146.627 148.925 146.611C148.541 146.626 148.157 146.562 147.798 146.423C147.44 146.283 147.114 146.071 146.841 145.8C146.568 145.529 146.353 145.204 146.211 144.846C146.069 144.489 146.003 144.105 146.015 143.721C146.001 142.904 146.307 142.114 146.868 141.52C147.428 140.926 148.199 140.575 149.015 140.541C149.421 140.502 149.83 140.548 150.216 140.676C150.603 140.805 150.958 141.013 151.26 141.287C151.561 141.561 151.802 141.895 151.966 142.268C152.131 142.64 152.216 143.043 152.215 143.451V143.451Z" fill="#3558A2"/>
<path d="M132.175 124.241C131.789 124.276 131.4 124.229 131.033 124.104C130.667 123.978 130.331 123.777 130.048 123.513C129.764 123.248 129.54 122.927 129.39 122.57C129.239 122.213 129.166 121.828 129.175 121.441C129.118 121.019 129.154 120.589 129.28 120.182C129.406 119.775 129.619 119.401 129.904 119.085C130.19 118.769 130.541 118.519 130.933 118.352C131.325 118.186 131.749 118.107 132.175 118.121C132.946 118.141 133.68 118.458 134.224 119.006C134.768 119.553 135.079 120.289 135.095 121.061C135.117 121.866 134.824 122.649 134.279 123.243C133.734 123.836 132.979 124.194 132.175 124.241V124.241Z" fill="#3558A2"/>
<path d="M212.125 161.91C211.74 161.922 211.356 161.853 210.999 161.709C210.642 161.564 210.319 161.346 210.051 161.069C209.782 160.793 209.575 160.463 209.441 160.102C209.308 159.74 209.251 159.355 209.275 158.97C209.297 158.151 209.63 157.371 210.205 156.788C210.781 156.205 211.556 155.863 212.375 155.83C212.779 155.83 213.179 155.911 213.551 156.069C213.923 156.228 214.26 156.459 214.54 156.751C214.82 157.042 215.038 157.387 215.182 157.765C215.325 158.143 215.391 158.546 215.375 158.95C215.311 159.764 214.94 160.524 214.336 161.074C213.732 161.624 212.941 161.923 212.125 161.91V161.91Z" fill="#3558A2"/>
<path d="M235.825 186.211C235.054 186.175 234.326 185.843 233.793 185.284C233.261 184.725 232.964 183.983 232.965 183.211C233.024 182.489 233.342 181.814 233.86 181.308C234.379 180.803 235.062 180.502 235.785 180.461C236.549 180.461 237.281 180.764 237.821 181.304C238.362 181.845 238.665 182.577 238.665 183.341C238.665 184.105 238.362 184.837 237.821 185.377C237.281 185.917 236.549 186.221 235.785 186.221L235.825 186.211Z" fill="#3558A2"/>
<path d="M122.955 114.419C122.228 114.382 121.541 114.072 121.031 113.551C120.522 113.031 120.227 112.337 120.205 111.609C120.251 110.845 120.587 110.127 121.145 109.603C121.703 109.079 122.44 108.788 123.205 108.789C123.568 108.793 123.926 108.868 124.259 109.011C124.592 109.153 124.895 109.36 125.148 109.619C125.402 109.878 125.602 110.184 125.737 110.521C125.872 110.857 125.939 111.217 125.935 111.579C125.93 111.962 125.848 112.341 125.695 112.692C125.542 113.044 125.32 113.361 125.042 113.626C124.765 113.89 124.437 114.097 124.079 114.233C123.72 114.369 123.338 114.432 122.955 114.419Z" fill="#3558A2"/>
<path d="M253.795 203.829C253.458 203.838 253.122 203.777 252.811 203.648C252.499 203.52 252.217 203.327 251.984 203.083C251.751 202.839 251.572 202.549 251.459 202.231C251.345 201.913 251.3 201.575 251.325 201.239C251.325 200.902 251.395 200.568 251.531 200.26C251.667 199.951 251.865 199.674 252.113 199.446C252.361 199.217 252.653 199.043 252.972 198.933C253.291 198.824 253.629 198.781 253.965 198.809C254.638 198.861 255.269 199.155 255.742 199.637C256.214 200.119 256.496 200.755 256.535 201.429C256.481 202.107 256.165 202.738 255.653 203.186C255.141 203.634 254.475 203.865 253.795 203.829V203.829Z" fill="#3558A2"/>
<path d="M108.176 154.23L146.706 118.1L155.496 132.18L118.096 169.29L108.176 154.23Z" fill="#EAECF1"/>
<path d="M209.455 212.681L246.215 177.191L254.595 191.021L218.915 227.481L209.455 212.681Z" fill="#EAECF1"/>
<path d="M191.826 145.449L159.926 181.049L177.776 187.919L206.996 145.799L191.826 145.449Z" fill="#EAECF1"/>
<path d="M108.625 91.9414L74.3848 125.241L90.5248 135.001L125.225 94.8114L108.625 91.9414Z" fill="#EAECF1"/>
<path d="M224.585 231.88C223.005 231.15 221.865 230.6 220.705 230.11C214.019 227.396 208.234 222.852 204.015 217C200.175 211.71 196.405 206.34 192.135 201.41C185.535 193.8 177.435 188.41 167.135 187.35C161.545 186.76 155.915 186.53 150.325 185.91C145.645 185.38 140.975 184.66 136.325 183.79C130.245 182.66 125.325 179.15 120.705 175.32C116.855 172.16 114.005 168.2 111.135 164.21C107.065 158.54 103.055 152.8 98.8048 147.26C93.4497 140.034 85.6843 134.965 76.9148 132.97C67.9848 130.91 59.1148 128.59 50.0348 127.22C43.2105 126.067 36.6493 123.696 30.6648 120.22C27.4948 118.46 25.1748 115.84 22.9348 113.06C16.4248 104.99 14.6848 95.9495 16.9348 85.9095C17.7973 82.3092 19.02 78.8048 20.5847 75.4495C21.2325 74.3644 22.1667 73.4787 23.2848 72.8895C30.9048 68.1195 38.5647 63.4295 46.2147 58.7095C51.548 55.4162 56.8814 52.1329 62.2147 48.8595C63.1193 48.2576 64.0767 47.7388 65.0748 47.3095C65.5078 47.0959 65.9859 46.99 66.4686 47.0007C66.9513 47.0115 67.4243 47.1386 67.8474 47.3712C68.2705 47.6039 68.6313 47.9352 68.8989 48.3371C69.1665 48.7389 69.3332 49.1995 69.3848 49.6795C69.5913 50.4734 69.6241 51.3025 69.4808 52.1102C69.3376 52.9179 69.0217 53.6851 68.5548 54.3595C63.6948 61.1095 64.8548 66.6495 69.5548 72.4795C73.8052 77.6002 79.3211 81.5199 85.5548 83.8495C92.0148 86.3995 98.8647 87.3695 105.605 88.7895C110.86 89.8013 116.034 91.1984 121.085 92.9695C126.935 95.1395 131.685 99.1995 136.085 103.63C140.217 107.974 143.776 112.83 146.675 118.08C149.455 122.87 152.305 127.63 155.475 132.16C159.995 138.66 166.575 141.83 174.325 142.82C182.075 143.81 189.915 143.37 197.705 142.94C206.445 142.385 215.178 144.141 223.025 148.03C231.917 152.369 239.106 159.552 243.455 168.44C244.674 171.073 246.032 173.64 247.525 176.13C249.502 179.167 251.67 182.076 254.015 184.84C256.248 187.379 259.126 189.269 262.345 190.31C265.366 191.284 268.314 192.473 271.165 193.87C274.12 195.316 276.72 197.397 278.779 199.964C280.838 202.531 282.305 205.52 283.075 208.72C283.795 211.65 283.225 212.3 280.845 214.16C277.495 216.79 274.325 219.66 271.115 222.47C260.248 231.97 249.395 241.486 238.555 251.02C237.131 252.295 235.322 253.059 233.415 253.19C225.365 253.93 220.365 249.55 218.065 242.56C217.642 241.444 217.576 240.224 217.875 239.069C218.174 237.914 218.824 236.88 219.735 236.11C221.185 234.72 222.715 233.5 224.585 231.88ZM59.3948 58.1195C58.5848 58.5295 57.9347 58.8195 57.3347 59.1795C55.2347 60.4595 53.1648 61.7595 51.0748 63.0495C43.2681 67.8495 35.4581 72.6529 27.6448 77.4595C26.9967 77.7804 26.426 78.238 25.9719 78.8009C25.5179 79.3637 25.1913 80.0183 25.0148 80.7195C24.4148 83.3595 23.3647 85.9095 22.8447 88.5595C21.4147 95.8595 22.5748 102.63 27.3248 108.61C29.3248 111.18 31.4248 113.68 34.4348 115.23C39.6158 118.073 45.2262 120.053 51.0448 121.09C60.2948 122.49 69.3448 124.81 78.4448 126.95C88.3753 129.214 97.1909 134.903 103.345 143.02C107.705 148.59 111.805 154.37 115.845 160.18C119.505 165.46 123.615 170.18 128.985 173.82C131.678 175.686 134.692 177.041 137.875 177.82C142.828 178.959 147.87 179.671 152.945 179.95C158.195 180.28 163.445 180.72 168.665 181.35C180.275 182.75 189.395 188.82 196.865 197.4C200.975 202.11 204.585 207.27 208.215 212.4C212.133 217.991 217.636 222.282 224.015 224.72C225.015 225.11 226.015 225.59 227.015 226.01C230.425 227.353 233.273 229.823 235.085 233.01C236.345 235.3 237.245 237.79 238.305 240.18L239.145 242.08L276.885 209.08C274.885 204.86 272.445 201.34 268.305 199.36C266.185 198.36 263.955 197.53 261.745 196.71C258.505 195.5 255.265 194.29 252.605 191.99C248.151 188.232 244.458 183.656 241.725 178.51C240.425 176.01 239.075 173.51 237.815 171.03C231.815 159.1 221.815 152.55 209.105 149.78C203.545 148.57 197.875 149.02 192.275 149.41C186.386 149.798 180.475 149.691 174.605 149.09C164.065 148.04 155.525 143.48 149.605 134.61C146.675 130.24 143.865 125.77 141.335 121.16C137.728 114.413 132.816 108.451 126.885 103.62C124.3 101.47 121.386 99.7512 118.255 98.5295C113.607 96.9968 108.872 95.7413 104.075 94.7695C99.4848 93.6995 94.8147 92.9595 90.2347 91.8495C81.9707 89.8881 74.3542 85.8232 68.1247 80.0495C65.0161 77.2351 62.5354 73.797 60.8447 69.9595C59.3951 66.9996 58.9024 63.662 59.4348 60.4095C59.4858 59.6464 59.4724 58.8804 59.3948 58.1195V58.1195ZM229.505 236.12C227.785 237.52 226.235 238.73 224.765 240.04C224.59 240.232 224.457 240.458 224.374 240.704C224.291 240.95 224.261 241.211 224.285 241.47C224.565 243.47 227.395 246.34 229.355 246.75C229.784 246.885 230.241 246.905 230.68 246.808C231.12 246.711 231.526 246.499 231.857 246.195C232.189 245.891 232.434 245.505 232.569 245.075C232.704 244.646 232.723 244.189 232.625 243.75C232.272 240.97 231.197 238.332 229.505 236.1V236.12Z" fill="#3558A2"/>
</svg>
